<?xml version="1.0" encoding="UTF-8" standalone="no"?><!DOCTYPE svg PUBLIC "-//W3C//DTD SVG 1.1//EN" "http://www.w3.org/Graphics/SVG/1.1/DTD/svg11.dtd"><svg width="100%" height="100%" viewBox="0 0 540 540" version="1.1" xmlns="http://www.w3.org/2000/svg" xmlns:xlink="http://www.w3.org/1999/xlink" xml:space="preserve" xmlns:serif="http://www.serif.com/" style="fill-rule:evenodd;clip-rule:evenodd;stroke-linecap:round;stroke-linejoin:round;stroke-miterlimit:1.5;"><path d="M523.427,261.96l-0,75.291c-0,20.289 -16.473,36.762 -36.763,36.762l-22.802,0c-20.29,0 -36.762,-16.473 -36.762,-36.762l-0,-75.291c-0,-20.29 16.472,-36.763 36.762,-36.763l22.802,0c20.29,0 36.763,16.473 36.763,36.763Z"/><path d="M112.9,261.96l0,75.291c0,20.289 -16.472,36.762 -36.762,36.762l-22.802,0c-20.29,0 -36.763,-16.473 -36.763,-36.762l0,-75.291c0,-20.29 16.473,-36.763 36.763,-36.763l22.802,0c20.29,0 36.762,16.473 36.762,36.763Z"/><path d="M475.263,196.447l0,326.039c0,-0 -68.606,-37.197 -92.888,-37.197l-235.112,0c-45.547,0 -82.526,-36.978 -82.526,-82.526l-0,-206.316c-0,-45.547 36.979,-82.526 82.526,-82.526l245.474,0c45.547,0 82.526,36.979 82.526,82.526Z" style="fill:#f5f5f5;"/><path d="M475.263,196.447l0,326.039c0,-0 -68.606,-37.197 -92.888,-37.197l-235.112,0c-45.547,0 -82.526,-36.978 -82.526,-82.526l-0,-206.316c-0,-45.547 36.979,-82.526 82.526,-82.526l245.474,0c45.547,0 82.526,36.979 82.526,82.526Zm-19.183,0c0,-34.96 -28.383,-63.343 -63.343,-63.343l-245.474,0c-34.96,0 -63.343,28.383 -63.343,63.343l-0,206.316c-0,34.96 28.383,63.343 63.343,63.343l235.112,0c8.882,0 22.752,3.594 37.645,9.308c12.044,4.622 24.972,10.497 36.06,15.836l0,-294.803Z"/><path d="M362.763,205.151c31.198,-0 56.526,25.328 56.526,56.526c0,31.198 -25.328,56.526 -56.526,56.526c-31.198,0 -56.526,-25.328 -56.526,-56.526c-0,-31.198 25.328,-56.526 56.526,-56.526Zm0,19.183c-20.61,-0 -37.343,16.733 -37.343,37.343c-0,20.61 16.733,37.343 37.343,37.343c20.61,0 37.343,-16.733 37.343,-37.343c0,-20.61 -16.733,-37.343 -37.343,-37.343Z"/><path d="M174.869,205.151c31.197,-0 56.526,25.328 56.526,56.526c-0,31.198 -25.329,56.526 -56.526,56.526c-31.198,0 -56.527,-25.328 -56.527,-56.526c0,-31.198 25.329,-56.526 56.527,-56.526Zm-0,19.183c-20.611,-0 -37.344,16.733 -37.344,37.343c0,20.61 16.733,37.343 37.344,37.343c20.61,0 37.343,-16.733 37.343,-37.343c-0,-20.61 -16.733,-37.343 -37.343,-37.343Z"/><path d="M335.447,357.632c0,36.775 -29.856,55.578 -66.631,55.578c-36.775,0 -66.632,-18.803 -66.632,-55.578" style="fill:none;stroke:#000;stroke-width:19.18px;"/><rect x="236.436" y="125.831" width="67.127" height="89.211"/><g><path d="M334.308,118.44l33.563,-48.947" style="fill:none;stroke:#000;stroke-width:19.18px;"/><circle cx="377.134" cy="57.692" r="28.552"/><path d="M377.134,29.139c15.759,0 28.553,12.794 28.553,28.553c-0,15.758 -12.794,28.552 -28.553,28.552c-15.758,0 -28.552,-12.794 -28.552,-28.552c0,-15.759 12.794,-28.553 28.552,-28.553Zm0,19.183c-5.171,0 -9.369,4.199 -9.369,9.37c0,5.171 4.198,9.369 9.369,9.369c5.172,0 9.37,-4.198 9.37,-9.369c-0,-5.171 -4.198,-9.37 -9.37,-9.37Z"/></g><g><path d="M205.692,118.44l-33.563,-48.947" style="fill:none;stroke:#000;stroke-width:19.18px;"/><circle cx="162.866" cy="57.692" r="28.552"/><path d="M162.866,29.139c15.758,0 28.552,12.794 28.552,28.553c-0,15.758 -12.794,28.552 -28.552,28.552c-15.759,0 -28.553,-12.794 -28.553,-28.552c0,-15.759 12.794,-28.553 28.553,-28.553Zm-0,19.183c-5.172,0 -9.37,4.199 -9.37,9.37c0,5.171 4.198,9.369 9.37,9.369c5.171,0 9.369,-4.198 9.369,-9.369c-0,-5.171 -4.198,-9.37 -9.369,-9.37Z"/></g></svg>